<svg width="204" height="285" viewBox="0 0 204 285" fill="none" xmlns="http://www.w3.org/2000/svg">
<rect y="189.767" width="79.0698" height="94.8837" rx="7.90698" fill="#1F2937"/>
<path d="M116.233 175.535C139.51 175.535 161.834 166.288 178.294 149.828C194.753 133.369 204 111.045 204 87.7674C204 64.4901 194.753 42.1661 178.294 25.7065C161.834 9.24691 139.51 4.53227e-06 116.233 0L116.233 78.9907C118.56 78.9907 120.793 79.9154 122.439 81.5613C124.085 83.2073 125.009 85.4397 125.009 87.7674C125.009 90.0952 124.085 92.3276 122.439 93.9735C120.793 95.6195 118.56 96.5442 116.233 96.5442V175.535Z" fill="#1F2937"/>
<path d="M0 7.90698C0 3.54008 3.54007 1.37329e-05 7.90698 1.37329e-05H117.023V79.0264L7.90698 79.0698C3.54008 79.0698 0 75.5297 0 71.1628V7.90698Z" fill="#1F2937"/>
<path d="M0 104.372C0 100.005 3.54007 96.4651 7.90698 96.4651L117.023 96.5085V175.535H7.90698C3.54008 175.535 0 171.995 0 167.628V104.372Z" fill="#1F2937"/>
</svg>
