<svg id="visual" viewBox="0 0 900 675" width="900" height="675" xmlns="http://www.w3.org/2000/svg" xmlns:xlink="http://www.w3.org/1999/xlink" version="1.1"><rect x="0" y="0" width="900" height="675" fill="#eeeeee"></rect><defs><linearGradient id="grad1_0" x1="25%" y1="0%" x2="100%" y2="100%"><stop offset="23.333333333333336%" stop-color="#ff00ff" stop-opacity="1"></stop><stop offset="76.66666666666666%" stop-color="#ff00ff" stop-opacity="1"></stop></linearGradient></defs><defs><linearGradient id="grad1_1" x1="25%" y1="0%" x2="100%" y2="100%"><stop offset="23.333333333333336%" stop-color="#ff00ff" stop-opacity="1"></stop><stop offset="76.66666666666666%" stop-color="#eeeeee" stop-opacity="1"></stop></linearGradient></defs><defs><linearGradient id="grad2_0" x1="0%" y1="0%" x2="75%" y2="100%"><stop offset="23.333333333333336%" stop-color="#ff00ff" stop-opacity="1"></stop><stop offset="76.66666666666666%" stop-color="#ff00ff" stop-opacity="1"></stop></linearGradient></defs><defs><linearGradient id="grad2_1" x1="0%" y1="0%" x2="75%" y2="100%"><stop offset="23.333333333333336%" stop-color="#eeeeee" stop-opacity="1"></stop><stop offset="76.66666666666666%" stop-color="#ff00ff" stop-opacity="1"></stop></linearGradient></defs><g transform="translate(900, 0)"><path d="M0 421.9C-49.9 426.3 -99.8 430.7 -130.4 401.2C-161 371.7 -172.3 308.3 -200.4 275.9C-228.5 243.4 -273.4 241.9 -304.2 221C-335 200.1 -351.7 160 -369 119.9C-386.3 79.8 -404.1 39.9 -421.9 0L0 0Z" fill="#fe9df8"></path><path d="M0 210.9C-24.9 213.1 -49.9 215.4 -65.2 200.6C-80.5 185.9 -86.2 154.2 -100.2 137.9C-114.3 121.7 -136.7 120.9 -152.1 110.5C-167.5 100.1 -175.9 80 -184.5 59.9C-193.1 39.9 -202 20 -210.9 0L0 0Z" fill="#ff00ff"></path></g><g transform="translate(0, 675)"><path d="M0 -421.9C48.2 -423.1 96.5 -424.2 130.4 -401.2C164.3 -378.2 183.9 -331 221.6 -305C259.3 -278.9 315.2 -274 335.7 -243.9C356.3 -213.8 341.5 -158.6 350 -113.7C358.5 -68.9 390.2 -34.4 421.9 0L0 0Z" fill="#fe9df8"></path><path d="M0 -210.9C24.1 -211.5 48.2 -212.1 65.2 -200.6C82.1 -189.1 91.9 -165.5 110.8 -152.5C129.7 -139.5 157.6 -137 167.9 -122C178.1 -106.9 170.8 -79.3 175 -56.9C179.2 -34.4 195.1 -17.2 210.9 0L0 0Z" fill="#ff00ff"></path></g></svg>