<?xml version="1.0" encoding="UTF-8" standalone="no"?><!DOCTYPE svg PUBLIC "-//W3C//DTD SVG 1.1//EN" "http://www.w3.org/Graphics/SVG/1.1/DTD/svg11.dtd"><svg width="100%" height="100%" viewBox="0 0 1919 1919" version="1.1" xmlns="http://www.w3.org/2000/svg" xmlns:xlink="http://www.w3.org/1999/xlink" xml:space="preserve" xmlns:serif="http://www.serif.com/" style="fill-rule:evenodd;clip-rule:evenodd;stroke-linecap:round;stroke-linejoin:round;stroke-miterlimit:1.5;"><g><g><rect x="340.574" y="1052.08" width="22.66" height="272.953" style="fill:#fff;stroke:#fff;stroke-width:4.17px;"/><path d="M550.635,1001.91l0.017,-22.66l-210.078,-0.152l-0.016,22.66l210.077,0.152Z" style="fill:#fff;stroke:#fff;stroke-width:4.17px;"/><path d="M565.848,615.932l0.016,-22.66l-225.306,-0.163l-0.017,22.66l225.307,0.163Z" style="fill:#fff;stroke:#fff;stroke-width:4.17px;"/><path d="M860.535,639.597l-22.063,0l169.834,638.956l22.66,-0l-170.431,-638.956Z" style="fill:#fff;stroke:#fff;stroke-width:4.17px;"/><path d="M1123.94,639.597l-22.063,0l169.834,638.956l22.66,-0l-170.431,-638.956Z" style="fill:#fff;stroke:#fff;stroke-width:4.17px;"/><path d="M1577.81,639.597l-23.158,0l-172.848,384.059l-0,28.423l196.006,-412.482Z" style="fill:#fff;stroke:#fff;stroke-width:4.17px;"/><path d="M550.652,1001.91c54.189,-2.053 106.96,-25.55 146.704,-65.32c82.707,-82.761 87.527,-212.24 10.757,-288.959c-36.891,-36.866 -88.059,-56.424 -142.248,-54.371l-0.878,23.571c47.938,-1.816 93.203,15.486 125.838,48.099c67.914,67.869 63.65,182.41 -9.516,255.624c-35.159,35.183 -81.842,55.968 -129.78,57.785l-0.877,23.571Z" style="fill:#fff;stroke:#fff;stroke-width:4.17px;"/></g><path d="M959.071,0c529.325,0 959.071,429.745 959.071,959.071c-0,529.325 -429.746,959.071 -959.071,959.071c-529.326,-0 -959.071,-429.746 -959.071,-959.071c0,-529.326 429.745,-959.071 959.071,-959.071Zm-0,34.142c510.482,-0 924.929,414.447 924.929,924.929c0,510.482 -414.447,924.929 -924.929,924.929c-510.482,0 -924.929,-414.447 -924.929,-924.929c-0,-510.482 414.447,-924.929 924.929,-924.929Z" style="fill:#fff;"/></g></svg>