<svg id="visual" viewBox="0 0 900 600" width="900" height="600" xmlns="http://www.w3.org/2000/svg" xmlns:xlink="http://www.w3.org/1999/xlink" version="1.1"><rect x="0" y="0" width="900" height="600" fill="#111827"></rect><path d="M0 517L21.5 494.7C43 472.3 86 427.7 128.8 420.3C171.7 413 214.3 443 257.2 447.2C300 451.3 343 429.7 385.8 437.7C428.7 445.7 471.3 483.3 514.2 500.2C557 517 600 513 642.8 493.3C685.7 473.7 728.3 438.3 771.2 433.5C814 428.7 857 454.3 878.5 467.2L900 480L900 601L878.5 601C857 601 814 601 771.2 601C728.3 601 685.7 601 642.8 601C600 601 557 601 514.2 601C471.3 601 428.7 601 385.8 601C343 601 300 601 257.2 601C214.3 601 171.7 601 128.8 601C86 601 43 601 21.5 601L0 601Z" fill="#1d4fd8" stroke-linecap="round" stroke-linejoin="miter"></path></svg>