<svg id="visual" viewBox="0 0 900 600" width="900" height="600" xmlns="http://www.w3.org/2000/svg" xmlns:xlink="http://www.w3.org/1999/xlink" version="1.1"><rect x="0" y="0" width="900" height="600" fill="#F9FAFB"></rect><defs><linearGradient id="grad1_0" x1="33.3%" y1="100%" x2="100%" y2="0%"><stop offset="20%" stop-color="#be185d" stop-opacity="1"></stop><stop offset="80%" stop-color="#be185d" stop-opacity="1"></stop></linearGradient></defs><defs><linearGradient id="grad1_1" x1="33.3%" y1="100%" x2="100%" y2="0%"><stop offset="20%" stop-color="#be185d" stop-opacity="1"></stop><stop offset="80%" stop-color="#bca0d9" stop-opacity="1"></stop></linearGradient></defs><defs><linearGradient id="grad1_2" x1="33.3%" y1="100%" x2="100%" y2="0%"><stop offset="20%" stop-color="#f9fafb" stop-opacity="1"></stop><stop offset="80%" stop-color="#bca0d9" stop-opacity="1"></stop></linearGradient></defs><defs><linearGradient id="grad2_0" x1="0%" y1="100%" x2="66.7%" y2="0%"><stop offset="20%" stop-color="#be185d" stop-opacity="1"></stop><stop offset="80%" stop-color="#be185d" stop-opacity="1"></stop></linearGradient></defs><defs><linearGradient id="grad2_1" x1="0%" y1="100%" x2="66.7%" y2="0%"><stop offset="20%" stop-color="#bca0d9" stop-opacity="1"></stop><stop offset="80%" stop-color="#be185d" stop-opacity="1"></stop></linearGradient></defs><defs><linearGradient id="grad2_2" x1="0%" y1="100%" x2="66.7%" y2="0%"><stop offset="20%" stop-color="#bca0d9" stop-opacity="1"></stop><stop offset="80%" stop-color="#f9fafb" stop-opacity="1"></stop></linearGradient></defs><g transform="translate(900, 600)"><path d="M-378.6 0C-331.7 -33.5 -284.8 -67.1 -269.8 -111.7C-254.7 -156.4 -271.4 -212.2 -256 -256C-240.5 -299.7 -192.9 -331.3 -144.9 -349.8C-96.9 -368.2 -48.4 -373.4 0 -378.6L0 0Z" fill="#c9d1f0"></path><path d="M-252.4 0C-221.1 -22.4 -189.9 -44.7 -179.8 -74.5C-169.8 -104.3 -180.9 -141.5 -170.6 -170.6C-160.3 -199.8 -128.6 -220.9 -96.6 -233.2C-64.6 -245.5 -32.3 -248.9 0 -252.4L0 0Z" fill="#c266a8"></path><path d="M-126.2 0C-110.6 -11.2 -94.9 -22.4 -89.9 -37.2C-84.9 -52.1 -90.5 -70.7 -85.3 -85.3C-80.2 -99.9 -64.3 -110.4 -48.3 -116.6C-32.3 -122.7 -16.1 -124.5 0 -126.2L0 0Z" fill="#be185d"></path></g><g transform="translate(0, 0)"><path d="M378.6 0C335.9 34.6 293.3 69.2 279.9 116C266.6 162.8 282.4 221.8 264.5 264.5C246.5 307.1 194.6 333.5 144.9 349.8C95.2 366.1 47.6 372.3 0 378.6L0 0Z" fill="#c9d1f0"></path><path d="M252.4 0C224 23.1 195.5 46.1 186.6 77.3C177.7 108.5 188.3 147.9 176.3 176.3C164.3 204.8 129.7 222.3 96.6 233.2C63.4 244 31.7 248.2 0 252.4L0 0Z" fill="#c266a8"></path><path d="M126.2 0C112 11.5 97.8 23.1 93.3 38.7C88.9 54.3 94.1 73.9 88.2 88.2C82.2 102.4 64.9 111.2 48.3 116.6C31.7 122 15.9 124.1 0 126.2L0 0Z" fill="#be185d"></path></g></svg>